<svg id="Layer_1" data-name="Layer 1" xmlns="http://www.w3.org/2000/svg" viewBox="0 0 24 24" fill="#ffffff"><path d="M22.92,6a8.86,8.86,0,0,1-2.47.68,4.27,4.27,0,0,0,1.89-2.38,8.64,8.64,0,0,1-2.72,1.05,4.29,4.29,0,0,0-7.43,2.93,4.46,4.46,0,0,0,.11,1A12.19,12.19,0,0,1,3.46,4.79a4.24,4.24,0,0,0-.58,2.15,4.3,4.3,0,0,0,1.9,3.58A4.4,4.4,0,0,1,2.84,10v0a4.29,4.29,0,0,0,3.44,4.21,4.22,4.22,0,0,1-1.13.15,4.45,4.45,0,0,1-.81-.08,4.3,4.3,0,0,0,4,3A8.56,8.56,0,0,1,3,19.13a8.72,8.72,0,0,1-1-.06A12.14,12.14,0,0,0,8.58,21,12.13,12.13,0,0,0,20.79,8.79c0-.19,0-.37,0-.56A8.69,8.69,0,0,0,22.92,6Z"/></svg>